<?xml version="1.0" ?><!-- Uploaded to: SVG Repo, www.svgrepo.com, Generator: SVG Repo Mixer Tools -->
<svg fill="#000000" width="800px" height="800px" viewBox="0 0 32 32" data-name="Layer 1" id="Layer_1" xmlns="http://www.w3.org/2000/svg"><rect height="1" width="7" x="13" y="2"/><rect height="1" width="10" x="10" y="27"/><rect height="1" transform="translate(-10 23) rotate(-90)" width="15" x="-1" y="16"/><rect height="1" transform="translate(8.5 38.5) rotate(-90)" width="18" x="14.5" y="14.5"/><rect height="1" width="7" x="6" y="8"/><rect height="1" transform="translate(-1.05 8.18) rotate(-45)" width="8.49" x="5.11" y="4.85"/><rect height="1" transform="translate(7 18) rotate(-90)" width="7" x="9" y="5"/><rect height="1" width="10" x="12" y="29"/><rect height="1" transform="translate(8.5 42.5) rotate(-90)" width="18" x="16.5" y="16.5"/><path d="M22,30V29h2a1,1,0,0,0,1-1V26h1v2a2,2,0,0,1-2,2Z"/><path d="M20,28V27h2a1,1,0,0,0,1-1V24h1v2a2,2,0,0,1-2,2Z"/><path d="M10,28V27H8a1,1,0,0,1-1-1V24H6v2a2,2,0,0,0,2,2Z"/><path d="M20,2V3h2a1,1,0,0,1,1,1V6h1V4a2,2,0,0,0-2-2Z"/><path d="M23,4V5h1a1,1,0,0,1,1,1V8h1V6a2,2,0,0,0-2-2Z"/><path d="M12,30V29H10a1,1,0,0,1-1-1V27H8v1a2,2,0,0,0,2,2Z"/></svg>